<svg xmlns="http://www.w3.org/2000/svg" viewBox="0 0 16 16" role="img" aria-label="token-history: a pixel token stamped with a rising token chart">
<title>token-history</title>
<style>rect{shape-rendering:crispEdges}.k{fill:#141413}.f{fill:#faf9f5}.o{fill:#d06a41}.ol{fill:#e59a70}.od{fill:#9c4a26}.b{fill:#4382c9}@media (prefers-color-scheme: dark){.k{fill:#141413}.f{fill:#faf9f5}.o{fill:#db7448}.ol{fill:#f0a37a}.od{fill:#8a4526}.b{fill:#5b95d6}}</style>
<rect class="k" x="5" y="0" width="6" height="1"/>
<rect class="k" x="3" y="1" width="2" height="1"/>
<rect class="ol" x="5" y="1" width="5" height="1"/>
<rect class="o" x="10" y="1" width="1" height="1"/>
<rect class="k" x="11" y="1" width="2" height="1"/>
<rect class="k" x="2" y="2" width="1" height="1"/>
<rect class="ol" x="3" y="2" width="3" height="1"/>
<rect class="f" x="6" y="2" width="4" height="1"/>
<rect class="o" x="10" y="2" width="3" height="1"/>
<rect class="k" x="13" y="2" width="1" height="1"/>
<rect class="k" x="1" y="3" width="1" height="1"/>
<rect class="ol" x="2" y="3" width="2" height="1"/>
<rect class="f" x="4" y="3" width="8" height="1"/>
<rect class="o" x="12" y="3" width="2" height="1"/>
<rect class="k" x="14" y="3" width="1" height="1"/>
<rect class="k" x="1" y="4" width="1" height="1"/>
<rect class="ol" x="2" y="4" width="1" height="1"/>
<rect class="f" x="3" y="4" width="10" height="1"/>
<rect class="o" x="13" y="4" width="1" height="1"/>
<rect class="k" x="14" y="4" width="1" height="1"/>
<rect class="k" x="0" y="5" width="1" height="1"/>
<rect class="ol" x="1" y="5" width="2" height="1"/>
<rect class="f" x="3" y="5" width="10" height="1"/>
<rect class="o" x="13" y="5" width="2" height="1"/>
<rect class="k" x="15" y="5" width="1" height="1"/>
<rect class="k" x="0" y="6" width="1" height="1"/>
<rect class="ol" x="1" y="6" width="1" height="1"/>
<rect class="f" x="2" y="6" width="8" height="1"/>
<rect class="b" x="10" y="6" width="2" height="1"/>
<rect class="f" x="12" y="6" width="2" height="1"/>
<rect class="o" x="14" y="6" width="1" height="1"/>
<rect class="k" x="15" y="6" width="1" height="1"/>
<rect class="k" x="0" y="7" width="1" height="1"/>
<rect class="ol" x="1" y="7" width="1" height="1"/>
<rect class="f" x="2" y="7" width="8" height="1"/>
<rect class="b" x="10" y="7" width="2" height="1"/>
<rect class="f" x="12" y="7" width="2" height="1"/>
<rect class="od" x="14" y="7" width="1" height="1"/>
<rect class="k" x="15" y="7" width="1" height="1"/>
<rect class="k" x="0" y="8" width="1" height="1"/>
<rect class="ol" x="1" y="8" width="1" height="1"/>
<rect class="f" x="2" y="8" width="5" height="1"/>
<rect class="k" x="7" y="8" width="2" height="1"/>
<rect class="f" x="9" y="8" width="1" height="1"/>
<rect class="k" x="10" y="8" width="2" height="1"/>
<rect class="f" x="12" y="8" width="2" height="1"/>
<rect class="od" x="14" y="8" width="1" height="1"/>
<rect class="k" x="15" y="8" width="1" height="1"/>
<rect class="k" x="0" y="9" width="1" height="1"/>
<rect class="ol" x="1" y="9" width="1" height="1"/>
<rect class="f" x="2" y="9" width="5" height="1"/>
<rect class="k" x="7" y="9" width="2" height="1"/>
<rect class="f" x="9" y="9" width="1" height="1"/>
<rect class="k" x="10" y="9" width="2" height="1"/>
<rect class="f" x="12" y="9" width="2" height="1"/>
<rect class="od" x="14" y="9" width="1" height="1"/>
<rect class="k" x="15" y="9" width="1" height="1"/>
<rect class="k" x="0" y="10" width="1" height="1"/>
<rect class="o" x="1" y="10" width="2" height="1"/>
<rect class="f" x="3" y="10" width="1" height="1"/>
<rect class="k" x="4" y="10" width="2" height="1"/>
<rect class="f" x="6" y="10" width="1" height="1"/>
<rect class="k" x="7" y="10" width="2" height="1"/>
<rect class="f" x="9" y="10" width="1" height="1"/>
<rect class="k" x="10" y="10" width="2" height="1"/>
<rect class="f" x="12" y="10" width="1" height="1"/>
<rect class="od" x="13" y="10" width="2" height="1"/>
<rect class="k" x="15" y="10" width="1" height="1"/>
<rect class="k" x="1" y="11" width="1" height="1"/>
<rect class="o" x="2" y="11" width="1" height="1"/>
<rect class="f" x="3" y="11" width="1" height="1"/>
<rect class="k" x="4" y="11" width="2" height="1"/>
<rect class="f" x="6" y="11" width="1" height="1"/>
<rect class="k" x="7" y="11" width="2" height="1"/>
<rect class="f" x="9" y="11" width="1" height="1"/>
<rect class="k" x="10" y="11" width="2" height="1"/>
<rect class="f" x="12" y="11" width="1" height="1"/>
<rect class="od" x="13" y="11" width="1" height="1"/>
<rect class="k" x="14" y="11" width="1" height="1"/>
<rect class="k" x="1" y="12" width="1" height="1"/>
<rect class="o" x="2" y="12" width="2" height="1"/>
<rect class="f" x="4" y="12" width="8" height="1"/>
<rect class="od" x="12" y="12" width="2" height="1"/>
<rect class="k" x="14" y="12" width="1" height="1"/>
<rect class="k" x="2" y="13" width="1" height="1"/>
<rect class="o" x="3" y="13" width="3" height="1"/>
<rect class="f" x="6" y="13" width="4" height="1"/>
<rect class="od" x="10" y="13" width="3" height="1"/>
<rect class="k" x="13" y="13" width="1" height="1"/>
<rect class="k" x="3" y="14" width="2" height="1"/>
<rect class="o" x="5" y="14" width="2" height="1"/>
<rect class="od" x="7" y="14" width="4" height="1"/>
<rect class="k" x="11" y="14" width="2" height="1"/>
<rect class="k" x="5" y="15" width="6" height="1"/>
</svg>
