<svg xmlns="http://www.w3.org/2000/svg" width="880" height="300" viewBox="0 0 880 300" role="img" aria-label="Weekly ledger">
<style>
svg{--f:Poppins,Arial,"Helvetica Neue",sans-serif;--fs:Lora,Georgia,"Iowan Old Style",serif;--fm:ui-monospace,"SF Mono",Menlo,Consolas,monospace;--surface:#faf9f5; --primary:#141413; --secondary:#53524b; --muted:#8a887f; --grid:#e8e6dc; --axis:#cbc8bc; --claude:#d06a41; --codex:#4382c9; --ramp0:#edeae0; --ramp1:#f2cdb9; --ramp2:#e59a70; --ramp3:#d06a41; --ramp4:#9c4a26; --ink3:#141413; --ink4:#ffffff;}
@media (prefers-color-scheme: dark){svg{--surface:#141413; --primary:#faf9f5; --secondary:#b0aea5; --muted:#85837a; --grid:#292824; --axis:#383630; --claude:#db7448; --codex:#5b95d6; --ramp0:#232221; --ramp1:#4b2b1b; --ramp2:#8a4526; --ramp3:#cf6a3e; --ramp4:#f0a37a; --ink3:#141413; --ink4:#141413;}}
.bg{fill:var(--surface)}
.grid{stroke:var(--grid);stroke-width:1;shape-rendering:crispEdges}
.axis{stroke:var(--axis);stroke-width:1;shape-rendering:crispEdges}
.t{font-family:var(--f);fill:var(--primary)}
.t2{font-family:var(--f);fill:var(--secondary)}
.tm{font-family:var(--f);fill:var(--muted);font-variant-numeric:tabular-nums}
.ts{font-family:var(--fs);fill:var(--primary)}
.tn{font-family:var(--fm);fill:var(--primary);font-variant-numeric:tabular-nums}
.s-claude{fill:var(--claude)}.s-codex{fill:var(--codex)}
.r0{fill:var(--ramp0)}.r1{fill:var(--ramp1)}.r2{fill:var(--ramp2)}.r3{fill:var(--ramp3)}.r4{fill:var(--ramp4)}
.on3{fill:var(--ink3)}.on4{fill:var(--ink4)}
.wip{opacity:.5}
@media (prefers-reduced-motion: reduce){*{animation:none !important}}
</style>
<rect class="bg" width="880" height="300"/>
<text class="ts" x="28" y="32" font-size="20" font-style="italic">Weekly ledger</text>
<text class="t2" x="28" y="52" font-size="12">Jul 06, 2026 – Aug 09, 2026 · 4.8B tokens over 5 weeks</text>
<rect class="s-claude" x="28" y="64" width="10" height="10" rx="2"/>
<text class="t2" x="44" y="73" font-size="12">Claude Code</text>
<rect class="s-codex" x="127" y="64" width="10" height="10" rx="2"/>
<text class="t2" x="143" y="73" font-size="12">Codex</text>
<line class="grid" x1="28" y1="128" x2="848" y2="128"/>
<text class="t2" x="28" y="116.0" font-size="12.5">Aug 03 – 09</text>
<path class="s-claude wip" d="M186.0,105.5 H276.1 V118.5 H186.0 A6.0,6.0 0 0 1 180.0,112.5 V111.5 A6.0,6.0 0 0 1 186.0,105.5 Z"/>
<path class="s-codex wip" d="M278.1,105.5 H346.5 A6.0,6.0 0 0 1 352.5,111.5 V112.5 A6.0,6.0 0 0 1 346.5,118.5 H278.1 V105.5 Z"/>
<text class="tm" x="848" y="116.0" font-size="12" text-anchor="end">564M *</text>
<line class="grid" x1="28" y1="160" x2="848" y2="160"/>
<text class="t2" x="28" y="148.0" font-size="12.5">Jul 27 – Aug 02</text>
<path class="s-claude" d="M186.0,137.5 H259.6 V150.5 H186.0 A6.0,6.0 0 0 1 180.0,144.5 V143.5 A6.0,6.0 0 0 1 186.0,137.5 Z"/>
<path class="s-codex" d="M261.6,137.5 H324.4 A6.0,6.0 0 0 1 330.4,143.5 V144.5 A6.0,6.0 0 0 1 324.4,150.5 H261.6 V137.5 Z"/>
<text class="tm" x="848" y="148.0" font-size="12" text-anchor="end">491M</text>
<line class="grid" x1="28" y1="192" x2="848" y2="192"/>
<text class="t2" x="28" y="180.0" font-size="12.5">Jul 20 – 26</text>
<path class="s-claude" d="M186.0,169.5 H373.2 V182.5 H186.0 A6.0,6.0 0 0 1 180.0,176.5 V175.5 A6.0,6.0 0 0 1 186.0,169.5 Z"/>
<path class="s-codex" d="M375.2,169.5 H492.4 A6.0,6.0 0 0 1 498.4,175.5 V176.5 A6.0,6.0 0 0 1 492.4,182.5 H375.2 V169.5 Z"/>
<text class="tm" x="848" y="180.0" font-size="12" text-anchor="end">1.0B</text>
<line class="grid" x1="28" y1="224" x2="848" y2="224"/>
<text class="t2" x="28" y="212.0" font-size="12.5">Jul 13 – 19</text>
<path class="s-claude" d="M186.0,201.5 H407.6 V214.5 H186.0 A6.0,6.0 0 0 1 180.0,208.5 V207.5 A6.0,6.0 0 0 1 186.0,201.5 Z"/>
<path class="s-codex" d="M409.6,201.5 H778.0 A6.0,6.0 0 0 1 784.0,207.5 V208.5 A6.0,6.0 0 0 1 778.0,214.5 H409.6 V201.5 Z"/>
<text class="tn" x="848" y="212.0" font-size="12" text-anchor="end" font-weight="700">2.0B</text>
<line class="grid" x1="28" y1="256" x2="848" y2="256"/>
<text class="t2" x="28" y="244.0" font-size="12.5">Jul 06 – 12</text>
<path class="s-claude" d="M186.0,233.5 H250.4 V246.5 H186.0 A6.0,6.0 0 0 1 180.0,240.5 V239.5 A6.0,6.0 0 0 1 186.0,233.5 Z"/>
<path class="s-codex" d="M252.4,233.5 H394.5 A6.0,6.0 0 0 1 400.5,239.5 V240.5 A6.0,6.0 0 0 1 394.5,246.5 H252.4 V233.5 Z"/>
<text class="tm" x="848" y="244.0" font-size="12" text-anchor="end">721M</text>
<text class="tm" x="28" y="286" font-size="10.5">Bars share one scale — the busiest week spans the column. * week still in progress, drawn faded. Generated 2026-08-05 14:55 UTC</text>
</svg>
