<svg xmlns="http://www.w3.org/2000/svg" width="880" height="380" viewBox="0 0 880 380" role="img" aria-label="Daily token flow">
<style>
svg{--f:Poppins,Arial,"Helvetica Neue",sans-serif;--fs:Lora,Georgia,"Iowan Old Style",serif;--fm:ui-monospace,"SF Mono",Menlo,Consolas,monospace;--surface:#faf9f5; --primary:#141413; --secondary:#53524b; --muted:#8a887f; --grid:#e8e6dc; --axis:#cbc8bc; --claude:#d06a41; --codex:#4382c9; --ramp0:#edeae0; --ramp1:#f2cdb9; --ramp2:#e59a70; --ramp3:#d06a41; --ramp4:#9c4a26; --ink3:#141413; --ink4:#ffffff;}
@media (prefers-color-scheme: dark){svg{--surface:#141413; --primary:#faf9f5; --secondary:#b0aea5; --muted:#85837a; --grid:#292824; --axis:#383630; --claude:#db7448; --codex:#5b95d6; --ramp0:#232221; --ramp1:#4b2b1b; --ramp2:#8a4526; --ramp3:#cf6a3e; --ramp4:#f0a37a; --ink3:#141413; --ink4:#141413;}}
.bg{fill:var(--surface)}
.grid{stroke:var(--grid);stroke-width:1;shape-rendering:crispEdges}
.axis{stroke:var(--axis);stroke-width:1;shape-rendering:crispEdges}
.t{font-family:var(--f);fill:var(--primary)}
.t2{font-family:var(--f);fill:var(--secondary)}
.tm{font-family:var(--f);fill:var(--muted);font-variant-numeric:tabular-nums}
.ts{font-family:var(--fs);fill:var(--primary)}
.tn{font-family:var(--fm);fill:var(--primary);font-variant-numeric:tabular-nums}
.s-claude{fill:var(--claude)}.s-codex{fill:var(--codex)}
.r0{fill:var(--ramp0)}.r1{fill:var(--ramp1)}.r2{fill:var(--ramp2)}.r3{fill:var(--ramp3)}.r4{fill:var(--ramp4)}
.on3{fill:var(--ink3)}.on4{fill:var(--ink4)}
.wip{opacity:.5}
.ga1{stop-color:var(--claude);stop-opacity:.45}.ga2{stop-color:var(--claude);stop-opacity:.05}.gb1{stop-color:var(--codex);stop-opacity:.45}.gb2{stop-color:var(--codex);stop-opacity:.05}.e-claude{stroke:var(--claude);stroke-width:2;fill:none;stroke-linejoin:round}.e-codex{stroke:var(--codex);stroke-width:2;fill:none;stroke-linejoin:round}.gridd{stroke:var(--grid);stroke-width:1;stroke-dasharray:2 4}.dot{stroke:var(--surface);stroke-width:2}.rise{animation:rise .9s cubic-bezier(.2,.7,.3,1) both}@keyframes rise{from{opacity:0;transform:translateY(12px)}to{opacity:1;transform:none}}.late{animation:fadein .5s ease-out .55s both}@keyframes fadein{from{opacity:0}to{opacity:1}}
@media (prefers-reduced-motion: reduce){*{animation:none !important}}
</style>
<rect class="bg" width="880" height="380"/>
<defs>
<linearGradient id="ga" x1="0" y1="0" x2="0" y2="1"><stop offset="0" class="ga1"/><stop offset="1" class="ga2"/></linearGradient>
<linearGradient id="gb" x1="0" y1="0" x2="0" y2="1"><stop offset="0" class="gb1"/><stop offset="1" class="gb2"/></linearGradient>
</defs>
<text class="ts" x="28" y="32" font-size="20" font-style="italic">Daily token flow</text>
<text class="t2" x="28" y="52" font-size="12">Jul 08, 2026 – Aug 06, 2026 · 5.3B tokens over 30 days</text>
<text class="tm" x="66" y="332.0" font-size="11" text-anchor="end">0</text>
<line class="gridd" x1="76" y1="280.8" x2="752" y2="280.8"/>
<text class="tm" x="66" y="284.8" font-size="11" text-anchor="end">100M</text>
<line class="gridd" x1="76" y1="233.6" x2="752" y2="233.6"/>
<text class="tm" x="66" y="237.6" font-size="11" text-anchor="end">200M</text>
<line class="gridd" x1="76" y1="186.4" x2="752" y2="186.4"/>
<text class="tm" x="66" y="190.4" font-size="11" text-anchor="end">300M</text>
<line class="gridd" x1="76" y1="139.2" x2="752" y2="139.2"/>
<text class="tm" x="66" y="143.2" font-size="11" text-anchor="end">400M</text>
<line class="gridd" x1="76" y1="92.0" x2="752" y2="92.0"/>
<text class="tm" x="66" y="96.0" font-size="11" text-anchor="end">500M</text>
<line class="axis" x1="76" y1="328.0" x2="752" y2="328.0"/>
<g class="rise">
<path fill="url(#ga)" d="M76.0,315.9 C79.9,315.3 91.5,312.4 99.3,312.4 C107.1,312.6 114.9,317.0 122.6,317.5 C130.4,317.5 138.2,317.5 145.9,315.4 C153.7,310.5 161.5,292.5 169.2,287.9 C177.0,287.4 184.8,287.4 192.6,287.4 C200.3,293.4 208.1,322.8 215.9,323.9 C223.6,323.9 231.4,305.5 239.2,293.7 C246.9,282.0 254.7,257.0 262.5,253.4 C270.3,253.4 278.0,269.5 285.8,272.2 C293.6,272.2 301.3,272.2 309.1,269.5 C316.9,264.5 324.6,241.7 332.4,241.7 C340.2,244.4 348.0,285.4 355.7,285.6 C363.5,285.6 371.3,244.0 379.0,243.2 C386.8,243.2 394.6,276.7 402.3,280.6 C410.1,280.6 417.9,266.5 425.7,266.5 C433.4,269.9 441.2,292.1 449.0,301.1 C456.7,310.1 464.5,320.4 472.3,320.4 C480.0,319.8 487.8,297.5 495.6,297.5 C503.4,298.8 511.1,323.1 518.9,328.0 C526.7,328.0 534.4,328.0 542.2,326.7 C550.0,321.1 557.7,299.2 565.5,294.6 C573.3,294.6 581.1,298.9 588.8,298.9 C596.6,296.7 604.4,281.2 612.1,281.2 C619.9,286.1 627.7,322.7 635.4,328.0 C643.2,328.0 651.0,317.2 658.8,312.8 C666.5,308.3 674.3,305.1 682.1,301.4 C689.8,297.6 697.6,301.4 705.4,290.2 C713.1,275.4 720.9,212.5 728.7,212.5 C736.5,213.1 748.1,280.1 752.0,293.7 L752.0,328.0 L76.0,328.0 Z"/>
<path fill="url(#gb)" d="M76.0,309.9 C79.9,308.3 91.5,309.9 99.3,300.3 C107.1,287.9 114.9,248.1 122.6,235.6 C130.4,225.3 138.2,226.4 145.9,225.3 C153.7,225.3 161.5,225.3 169.2,228.7 C177.0,232.6 184.8,248.3 192.6,248.9 C200.3,248.9 208.1,240.9 215.9,232.2 C223.6,223.4 231.4,215.0 239.2,196.4 C246.9,177.8 254.7,120.4 262.5,120.4 C270.3,121.6 278.0,203.4 285.8,203.5 C293.6,203.5 301.3,121.0 309.1,121.0 C316.9,122.0 324.6,195.2 332.4,209.7 C340.2,209.7 348.0,208.4 355.7,207.6 C363.5,206.9 371.3,205.3 379.0,205.3 C386.8,207.5 394.6,214.7 402.3,220.9 C410.1,227.1 417.9,234.1 425.7,242.7 C433.4,251.2 441.2,261.0 449.0,272.3 C456.7,283.6 464.5,308.3 472.3,310.5 C480.0,310.5 487.8,285.1 495.6,285.1 C503.4,287.2 511.1,316.4 518.9,322.7 C526.7,322.9 534.4,322.9 542.2,322.9 C550.0,315.3 557.7,283.9 565.5,276.9 C573.3,276.9 581.1,280.9 588.8,280.9 C596.6,279.7 604.4,269.9 612.1,269.9 C619.9,276.6 627.7,321.3 635.4,321.3 C643.2,315.1 651.0,238.5 658.8,232.5 C666.5,232.5 674.3,285.4 682.1,285.4 C689.8,284.1 697.6,250.0 705.4,225.1 C713.1,200.3 720.9,136.1 728.7,136.1 C736.5,145.4 748.1,257.0 752.0,281.2 L752.0,293.7 C748.1,280.1 736.5,213.1 728.7,212.5 C720.9,212.5 713.1,275.4 705.4,290.2 C697.6,301.4 689.8,297.6 682.1,301.4 C674.3,305.1 666.5,308.3 658.8,312.8 C651.0,317.2 643.2,328.0 635.4,328.0 C627.7,322.7 619.9,286.1 612.1,281.2 C604.4,281.2 596.6,296.7 588.8,298.9 C581.1,298.9 573.3,294.6 565.5,294.6 C557.7,299.2 550.0,321.1 542.2,326.7 C534.4,328.0 526.7,328.0 518.9,328.0 C511.1,323.1 503.4,298.8 495.6,297.5 C487.8,297.5 480.0,319.8 472.3,320.4 C464.5,320.4 456.7,310.1 449.0,301.1 C441.2,292.1 433.4,269.9 425.7,266.5 C417.9,266.5 410.1,280.6 402.3,280.6 C394.6,276.7 386.8,243.2 379.0,243.2 C371.3,244.0 363.5,285.6 355.7,285.6 C348.0,285.4 340.2,244.4 332.4,241.7 C324.6,241.7 316.9,264.5 309.1,269.5 C301.3,272.2 293.6,272.2 285.8,272.2 C278.0,269.5 270.3,253.4 262.5,253.4 C254.7,257.0 246.9,282.0 239.2,293.7 C231.4,305.5 223.6,323.9 215.9,323.9 C208.1,322.8 200.3,293.4 192.6,287.4 C184.8,287.4 177.0,287.4 169.2,287.9 C161.5,292.5 153.7,310.5 145.9,315.4 C138.2,317.5 130.4,317.5 122.6,317.5 C114.9,317.0 107.1,312.6 99.3,312.4 C91.5,312.4 79.9,315.3 76.0,315.9 Z"/>
<path class="e-claude" d="M76.0,315.9 C79.9,315.3 91.5,312.4 99.3,312.4 C107.1,312.6 114.9,317.0 122.6,317.5 C130.4,317.5 138.2,317.5 145.9,315.4 C153.7,310.5 161.5,292.5 169.2,287.9 C177.0,287.4 184.8,287.4 192.6,287.4 C200.3,293.4 208.1,322.8 215.9,323.9 C223.6,323.9 231.4,305.5 239.2,293.7 C246.9,282.0 254.7,257.0 262.5,253.4 C270.3,253.4 278.0,269.5 285.8,272.2 C293.6,272.2 301.3,272.2 309.1,269.5 C316.9,264.5 324.6,241.7 332.4,241.7 C340.2,244.4 348.0,285.4 355.7,285.6 C363.5,285.6 371.3,244.0 379.0,243.2 C386.8,243.2 394.6,276.7 402.3,280.6 C410.1,280.6 417.9,266.5 425.7,266.5 C433.4,269.9 441.2,292.1 449.0,301.1 C456.7,310.1 464.5,320.4 472.3,320.4 C480.0,319.8 487.8,297.5 495.6,297.5 C503.4,298.8 511.1,323.1 518.9,328.0 C526.7,328.0 534.4,328.0 542.2,326.7 C550.0,321.1 557.7,299.2 565.5,294.6 C573.3,294.6 581.1,298.9 588.8,298.9 C596.6,296.7 604.4,281.2 612.1,281.2 C619.9,286.1 627.7,322.7 635.4,328.0 C643.2,328.0 651.0,317.2 658.8,312.8 C666.5,308.3 674.3,305.1 682.1,301.4 C689.8,297.6 697.6,301.4 705.4,290.2 C713.1,275.4 720.9,212.5 728.7,212.5 C736.5,213.1 748.1,280.1 752.0,293.7"/>
<path class="e-codex" d="M76.0,309.9 C79.9,308.3 91.5,309.9 99.3,300.3 C107.1,287.9 114.9,248.1 122.6,235.6 C130.4,225.3 138.2,226.4 145.9,225.3 C153.7,225.3 161.5,225.3 169.2,228.7 C177.0,232.6 184.8,248.3 192.6,248.9 C200.3,248.9 208.1,240.9 215.9,232.2 C223.6,223.4 231.4,215.0 239.2,196.4 C246.9,177.8 254.7,120.4 262.5,120.4 C270.3,121.6 278.0,203.4 285.8,203.5 C293.6,203.5 301.3,121.0 309.1,121.0 C316.9,122.0 324.6,195.2 332.4,209.7 C340.2,209.7 348.0,208.4 355.7,207.6 C363.5,206.9 371.3,205.3 379.0,205.3 C386.8,207.5 394.6,214.7 402.3,220.9 C410.1,227.1 417.9,234.1 425.7,242.7 C433.4,251.2 441.2,261.0 449.0,272.3 C456.7,283.6 464.5,308.3 472.3,310.5 C480.0,310.5 487.8,285.1 495.6,285.1 C503.4,287.2 511.1,316.4 518.9,322.7 C526.7,322.9 534.4,322.9 542.2,322.9 C550.0,315.3 557.7,283.9 565.5,276.9 C573.3,276.9 581.1,280.9 588.8,280.9 C596.6,279.7 604.4,269.9 612.1,269.9 C619.9,276.6 627.7,321.3 635.4,321.3 C643.2,315.1 651.0,238.5 658.8,232.5 C666.5,232.5 674.3,285.4 682.1,285.4 C689.8,284.1 697.6,250.0 705.4,225.1 C713.1,200.3 720.9,136.1 728.7,136.1 C736.5,145.4 748.1,257.0 752.0,281.2"/>
</g>
<text class="tm" x="99.3" y="348" font-size="10.5" text-anchor="middle">07/09</text>
<text class="tm" x="192.6" y="348" font-size="10.5" text-anchor="middle">07/13</text>
<text class="tm" x="285.8" y="348" font-size="10.5" text-anchor="middle">07/17</text>
<text class="tm" x="379.0" y="348" font-size="10.5" text-anchor="middle">07/21</text>
<text class="tm" x="472.3" y="348" font-size="10.5" text-anchor="middle">07/25</text>
<text class="tm" x="565.5" y="348" font-size="10.5" text-anchor="middle">07/29</text>
<text class="tm" x="658.8" y="348" font-size="10.5" text-anchor="middle">08/02</text>
<text class="tm" x="752.0" y="348" font-size="10.5" text-anchor="middle">08/06</text>
<g class="late">
<circle class="s-claude dot" cx="764" cy="304.0" r="4"/>
<text class="t2" x="774" y="308.0" font-size="12">Claude Code</text>
<text class="tn" x="774" y="325.0" font-size="12.5" font-weight="600">73M</text>
<circle class="s-codex dot" cx="764" cy="260.0" r="4"/>
<text class="t2" x="774" y="264.0" font-size="12">Codex</text>
<text class="tn" x="774" y="281.0" font-size="12.5" font-weight="600">26M</text>
<circle class="dot" cx="262.5" cy="120.4" r="3.5" fill="var(--primary)"/>
<text class="t" x="262.5" y="110.4" font-size="11.5" font-weight="600" text-anchor="middle">440M</text>
</g>
<text class="tm" x="28" y="366" font-size="10.5">Generated 2026-08-06 06:44 UTC</text>
</svg>
