<svg xmlns="http://www.w3.org/2000/svg" width="880" height="368" viewBox="0 0 880 368" role="img" aria-label="Daily API-equivalent value">
<style>
svg{--f:Poppins,Arial,"Helvetica Neue",sans-serif;--fs:Lora,Georgia,"Iowan Old Style",serif;--fm:ui-monospace,"SF Mono",Menlo,Consolas,monospace;--surface:#faf9f5; --primary:#141413; --secondary:#53524b; --muted:#8a887f; --grid:#e8e6dc; --axis:#cbc8bc; --claude:#d06a41; --codex:#4382c9; --opencode:#7c5cd6; --pi:#2e9e6b; --ramp0:#edeae0; --ramp1:#f2cdb9; --ramp2:#e59a70; --ramp3:#d06a41; --ramp4:#9c4a26; --ink3:#141413; --ink4:#ffffff;}
@media (prefers-color-scheme: dark){svg{--surface:#141413; --primary:#faf9f5; --secondary:#b0aea5; --muted:#85837a; --grid:#292824; --axis:#383630; --claude:#db7448; --codex:#5b95d6; --opencode:#8f74e0; --pi:#3daf7a; --ramp0:#232221; --ramp1:#4b2b1b; --ramp2:#8a4526; --ramp3:#cf6a3e; --ramp4:#f0a37a; --ink3:#141413; --ink4:#141413;}}
.bg{fill:var(--surface)}
.grid{stroke:var(--grid);stroke-width:1;shape-rendering:crispEdges}
.axis{stroke:var(--axis);stroke-width:1;shape-rendering:crispEdges}
.t{font-family:var(--f);fill:var(--primary)}
.t2{font-family:var(--f);fill:var(--secondary)}
.tm{font-family:var(--f);fill:var(--muted);font-variant-numeric:tabular-nums}
.ts{font-family:var(--fs);fill:var(--primary)}
.tn{font-family:var(--fm);fill:var(--primary);font-variant-numeric:tabular-nums}
.s-claude{fill:var(--claude)}.s-codex{fill:var(--codex)}.s-opencode{fill:var(--opencode)}.s-pi{fill:var(--pi)}
.r0{fill:var(--ramp0)}.r1{fill:var(--ramp1)}.r2{fill:var(--ramp2)}.r3{fill:var(--ramp3)}.r4{fill:var(--ramp4)}
.on3{fill:var(--ink3)}.on4{fill:var(--ink4)}
.wip{opacity:.5}
@media (prefers-reduced-motion: reduce){*{animation:none !important}}
</style>
<rect class="bg" width="880" height="368"/>
<text class="t" x="28" y="30" font-size="17" font-weight="600">Daily API-equivalent value</text>
<text class="t2" x="28" y="50" font-size="12">Aug 07, 2026 – Sep 05, 2026 · $794 over 30 days</text>
<rect class="s-claude" x="28" y="62" width="10" height="10" rx="2"/>
<text class="t2" x="44" y="71" font-size="12">Claude Code</text>
<rect class="s-codex" x="127" y="62" width="10" height="10" rx="2"/>
<text class="t2" x="143" y="71" font-size="12">Codex</text>
<rect class="s-opencode" x="184" y="62" width="10" height="10" rx="2"/>
<text class="t2" x="200" y="71" font-size="12">opencode</text>
<rect class="s-pi" x="262" y="62" width="10" height="10" rx="2"/>
<text class="t2" x="278" y="71" font-size="12">pi</text>
<text class="tm" x="66" y="320.0" font-size="11" text-anchor="end">$0</text>
<line class="grid" x1="76" y1="278.7" x2="852" y2="278.7"/>
<text class="tm" x="66" y="282.7" font-size="11" text-anchor="end">$20.0</text>
<line class="grid" x1="76" y1="241.3" x2="852" y2="241.3"/>
<text class="tm" x="66" y="245.3" font-size="11" text-anchor="end">$40.0</text>
<line class="grid" x1="76" y1="204.0" x2="852" y2="204.0"/>
<text class="tm" x="66" y="208.0" font-size="11" text-anchor="end">$60.0</text>
<line class="grid" x1="76" y1="166.7" x2="852" y2="166.7"/>
<text class="tm" x="66" y="170.7" font-size="11" text-anchor="end">$80.0</text>
<line class="grid" x1="76" y1="129.3" x2="852" y2="129.3"/>
<text class="tm" x="66" y="133.3" font-size="11" text-anchor="end">$100</text>
<line class="grid" x1="76" y1="92.0" x2="852" y2="92.0"/>
<text class="tm" x="66" y="96.0" font-size="11" text-anchor="end">$120</text>
<line class="axis" x1="76" y1="316.0" x2="852" y2="316.0"/>
<path class="s-opencode" d="M80.9,316.0 V316.0 a0.0,0.0 0 0 1 0.0,-0.0 h16.0 a0.0,0.0 0 0 1 0.0,0.0 V316.0 Z"/>
<path class="s-codex" d="M106.8,296.3 h16.0 v19.7 h-16.0 Z"/>
<path class="s-opencode" d="M106.8,294.3 V294.3 a0.1,0.1 0 0 1 0.1,-0.1 h15.9 a0.1,0.1 0 0 1 0.1,0.1 V294.3 Z"/>
<text class="tm" x="114.8" y="336" font-size="10.5" text-anchor="middle">08/08</text>
<path class="s-codex" d="M132.6,98.7 h16.0 v217.3 h-16.0 Z"/>
<path class="s-opencode" d="M132.6,96.7 V96.7 a0.2,0.2 0 0 1 0.2,-0.2 h15.7 a0.2,0.2 0 0 1 0.2,0.2 V96.7 Z"/>
<path class="s-codex" d="M158.5,264.0 h16.0 v52.0 h-16.0 Z"/>
<path class="s-opencode" d="M158.5,262.0 V262.0 a0.3,0.3 0 0 1 0.3,-0.3 h15.5 a0.3,0.3 0 0 1 0.3,0.3 V262.0 Z"/>
<path class="s-codex" d="M184.4,206.6 h16.0 v109.4 h-16.0 Z"/>
<path class="s-opencode" d="M184.4,204.6 V204.6 a0.1,0.1 0 0 1 0.1,-0.1 h15.9 a0.1,0.1 0 0 1 0.1,0.1 V204.6 Z"/>
<path class="s-codex" d="M210.2,233.5 h16.0 v82.5 h-16.0 Z"/>
<path class="s-opencode" d="M210.2,231.5 V216.9 a4.0,4.0 0 0 1 4.0,-4.0 h8.0 a4.0,4.0 0 0 1 4.0,4.0 V231.5 Z"/>
<text class="tm" x="218.3" y="336" font-size="10.5" text-anchor="middle">08/12</text>
<path class="s-codex" d="M236.1,109.4 h16.0 v206.6 h-16.0 Z"/>
<path class="s-opencode" d="M236.1,107.4 V107.4 a0.8,0.8 0 0 1 0.8,-0.8 h14.4 a0.8,0.8 0 0 1 0.8,0.8 V107.4 Z"/>
<path class="s-codex" d="M262.0,171.0 h16.0 v145.0 h-16.0 Z"/>
<path class="s-opencode" d="M262.0,169.0 V107.4 a4.0,4.0 0 0 1 4.0,-4.0 h8.0 a4.0,4.0 0 0 1 4.0,4.0 V169.0 Z"/>
<path class="s-codex" d="M287.8,229.3 h16.0 v86.7 h-16.0 Z"/>
<path class="s-opencode" d="M287.8,227.3 V168.3 a4.0,4.0 0 0 1 4.0,-4.0 h8.0 a4.0,4.0 0 0 1 4.0,4.0 V227.3 Z"/>
<path class="s-codex" d="M313.7,252.2 h16.0 v63.8 h-16.0 Z"/>
<path class="s-opencode" d="M313.7,250.2 V179.7 a4.0,4.0 0 0 1 4.0,-4.0 h8.0 a4.0,4.0 0 0 1 4.0,4.0 V250.2 Z"/>
<text class="tm" x="321.7" y="336" font-size="10.5" text-anchor="middle">08/16</text>
<path class="s-opencode" d="M339.6,316.0 V316.0 a1.1,1.1 0 0 1 1.1,-1.1 h13.8 a1.1,1.1 0 0 1 1.1,1.1 V316.0 Z"/>
<path class="s-codex" d="M365.4,205.2 h16.0 v110.8 h-16.0 Z"/>
<path class="s-opencode" d="M365.4,203.2 V203.2 a1.1,1.1 0 0 1 1.1,-1.1 h13.8 a1.1,1.1 0 0 1 1.1,1.1 V203.2 Z"/>
<path class="s-codex wip" d="M391.3,316.0 V249.6 a4.0,4.0 0 0 1 4.0,-4.0 h8.0 a4.0,4.0 0 0 1 4.0,4.0 V316.0 Z"/>
<text class="tm" x="425.2" y="336" font-size="10.5" text-anchor="middle">08/20</text>
<path class="s-opencode" d="M443.0,316.0 V316.0 a0.0,0.0 0 0 1 0.0,-0.0 h16.0 a0.0,0.0 0 0 1 0.0,0.0 V316.0 Z"/>
<text class="tm" x="528.7" y="336" font-size="10.5" text-anchor="middle">08/24</text>
<path class="s-opencode" d="M546.5,316.0 V316.0 a2.0,2.0 0 0 1 2.0,-2.0 h12.0 a2.0,2.0 0 0 1 2.0,2.0 V316.0 Z"/>
<path class="s-opencode" d="M598.2,316.0 V316.0 a0.4,0.4 0 0 1 0.4,-0.4 h15.2 a0.4,0.4 0 0 1 0.4,0.4 V316.0 Z"/>
<path class="s-opencode" d="M624.1,316.0 V316.0 a0.9,0.9 0 0 1 0.9,-0.9 h14.2 a0.9,0.9 0 0 1 0.9,0.9 V316.0 Z"/>
<text class="tm" x="632.1" y="336" font-size="10.5" text-anchor="middle">08/28</text>
<path class="s-codex" d="M650.0,316.0 h16.0 v0.0 h-16.0 Z"/>
<path class="s-opencode" d="M650.0,314.2 V314.2 a3.2,3.2 0 0 1 3.2,-3.2 h9.7 a3.2,3.2 0 0 1 3.2,3.2 V314.2 Z"/>
<path class="s-opencode" d="M675.8,316.0 V311.5 a4.0,4.0 0 0 1 4.0,-4.0 h8.0 a4.0,4.0 0 0 1 4.0,4.0 V316.0 Z"/>
<path class="s-opencode" d="M727.6,316.0 V316.0 a1.5,1.5 0 0 1 1.5,-1.5 h13.0 a1.5,1.5 0 0 1 1.5,1.5 V316.0 Z"/>
<text class="tm" x="735.6" y="336" font-size="10.5" text-anchor="middle">09/01</text>
<path class="s-opencode" d="M753.4,316.0 V268.6 a4.0,4.0 0 0 1 4.0,-4.0 h8.0 a4.0,4.0 0 0 1 4.0,4.0 V316.0 Z"/>
<path class="s-opencode" d="M779.3,316.0 V316.0 a1.2,1.2 0 0 1 1.2,-1.2 h13.7 a1.2,1.2 0 0 1 1.2,1.2 V316.0 Z"/>
<path class="s-opencode" d="M805.2,316.0 V316.0 a0.9,0.9 0 0 1 0.9,-0.9 h14.3 a0.9,0.9 0 0 1 0.9,0.9 V316.0 Z"/>
<path class="s-claude wip" d="M831.0,316.0 h16.0 v0.0 h-16.0 Z"/>
<path class="s-opencode wip" d="M831.0,315.8 V315.8 a0.6,0.6 0 0 1 0.6,-0.6 h14.8 a0.6,0.6 0 0 1 0.6,0.6 V315.8 Z"/>
<text class="tm" x="839.1" y="336" font-size="10.5" text-anchor="middle">09/05</text>
<text class="t" x="140.7" y="88.5" font-size="11.5" font-weight="600" text-anchor="middle">$118</text>
<text class="t" x="839.1" y="307.1" font-size="11.5" font-weight="600" text-anchor="middle">$0.5</text>
<text class="tm" x="28" y="354" font-size="10.5">Generated 2026-09-05 12:00 UTC</text>
</svg>
