<svg xmlns="http://www.w3.org/2000/svg" width="880" height="368" viewBox="0 0 880 368" role="img" aria-label="Daily token usage">
<style>
svg{--f:Poppins,Arial,"Helvetica Neue",sans-serif;--fs:Lora,Georgia,"Iowan Old Style",serif;--fm:ui-monospace,"SF Mono",Menlo,Consolas,monospace;--surface:#faf9f5; --primary:#141413; --secondary:#53524b; --muted:#8a887f; --grid:#e8e6dc; --axis:#cbc8bc; --claude:#d06a41; --codex:#4382c9; --opencode:#7c5cd6; --pi:#2e9e6b; --ramp0:#edeae0; --ramp1:#f2cdb9; --ramp2:#e59a70; --ramp3:#d06a41; --ramp4:#9c4a26; --ink3:#141413; --ink4:#ffffff;}
@media (prefers-color-scheme: dark){svg{--surface:#141413; --primary:#faf9f5; --secondary:#b0aea5; --muted:#85837a; --grid:#292824; --axis:#383630; --claude:#db7448; --codex:#5b95d6; --opencode:#8f74e0; --pi:#3daf7a; --ramp0:#232221; --ramp1:#4b2b1b; --ramp2:#8a4526; --ramp3:#cf6a3e; --ramp4:#f0a37a; --ink3:#141413; --ink4:#141413;}}
.bg{fill:var(--surface)}
.grid{stroke:var(--grid);stroke-width:1;shape-rendering:crispEdges}
.axis{stroke:var(--axis);stroke-width:1;shape-rendering:crispEdges}
.t{font-family:var(--f);fill:var(--primary)}
.t2{font-family:var(--f);fill:var(--secondary)}
.tm{font-family:var(--f);fill:var(--muted);font-variant-numeric:tabular-nums}
.ts{font-family:var(--fs);fill:var(--primary)}
.tn{font-family:var(--fm);fill:var(--primary);font-variant-numeric:tabular-nums}
.s-claude{fill:var(--claude)}.s-codex{fill:var(--codex)}.s-opencode{fill:var(--opencode)}.s-pi{fill:var(--pi)}
.r0{fill:var(--ramp0)}.r1{fill:var(--ramp1)}.r2{fill:var(--ramp2)}.r3{fill:var(--ramp3)}.r4{fill:var(--ramp4)}
.on3{fill:var(--ink3)}.on4{fill:var(--ink4)}
.wip{opacity:.5}
@media (prefers-reduced-motion: reduce){*{animation:none !important}}
</style>
<rect class="bg" width="880" height="368"/>
<text class="t" x="28" y="30" font-size="17" font-weight="600">Daily token usage</text>
<text class="t2" x="28" y="50" font-size="12">Jul 11, 2026 – Aug 09, 2026 · 878M tokens over 30 days</text>
<rect class="s-claude" x="28" y="62" width="10" height="10" rx="2"/>
<text class="t2" x="44" y="71" font-size="12">Claude Code</text>
<rect class="s-codex" x="127" y="62" width="10" height="10" rx="2"/>
<text class="t2" x="143" y="71" font-size="12">Codex</text>
<rect class="s-opencode" x="184" y="62" width="10" height="10" rx="2"/>
<text class="t2" x="200" y="71" font-size="12">opencode</text>
<rect class="s-pi" x="262" y="62" width="10" height="10" rx="2"/>
<text class="t2" x="278" y="71" font-size="12">pi</text>
<text class="tm" x="66" y="320.0" font-size="11" text-anchor="end">0</text>
<line class="grid" x1="76" y1="260.0" x2="852" y2="260.0"/>
<text class="tm" x="66" y="264.0" font-size="11" text-anchor="end">50M</text>
<line class="grid" x1="76" y1="204.0" x2="852" y2="204.0"/>
<text class="tm" x="66" y="208.0" font-size="11" text-anchor="end">100M</text>
<line class="grid" x1="76" y1="148.0" x2="852" y2="148.0"/>
<text class="tm" x="66" y="152.0" font-size="11" text-anchor="end">150M</text>
<line class="grid" x1="76" y1="92.0" x2="852" y2="92.0"/>
<text class="tm" x="66" y="96.0" font-size="11" text-anchor="end">200M</text>
<line class="axis" x1="76" y1="316.0" x2="852" y2="316.0"/>
<path class="s-opencode" d="M80.9,316.0 V316.0 a0.0,0.0 0 0 1 0.0,-0.0 h15.9 a0.0,0.0 0 0 1 0.0,0.0 V316.0 Z"/>
<path class="s-opencode" d="M106.8,316.0 V316.0 a0.4,0.4 0 0 1 0.4,-0.4 h15.3 a0.4,0.4 0 0 1 0.4,0.4 V316.0 Z"/>
<text class="tm" x="114.8" y="336" font-size="10.5" text-anchor="middle">07/12</text>
<path class="s-claude" d="M132.6,301.0 h16.0 v15.0 h-16.0 Z"/>
<path class="s-opencode" d="M132.6,299.0 V299.0 a3.0,3.0 0 0 1 3.0,-3.0 h10.1 a3.0,3.0 0 0 1 3.0,3.0 V299.0 Z"/>
<path class="s-claude" d="M158.5,306.5 h16.0 v9.5 h-16.0 Z"/>
<path class="s-opencode" d="M158.5,304.5 V289.7 a4.0,4.0 0 0 1 4.0,-4.0 h8.0 a4.0,4.0 0 0 1 4.0,4.0 V304.5 Z"/>
<path class="s-opencode" d="M184.4,316.0 h16.0 v0.0 h-16.0 Z"/>
<path class="s-pi" d="M184.4,314.7 V314.7 a0.0,0.0 0 0 1 0.0,-0.0 h16.0 a0.0,0.0 0 0 1 0.0,0.0 V314.7 Z"/>
<path class="s-claude" d="M210.2,308.4 h16.0 v7.6 h-16.0 Z"/>
<path class="s-opencode" d="M210.2,306.4 V303.9 a4.0,4.0 0 0 1 4.0,-4.0 h8.0 a4.0,4.0 0 0 1 4.0,4.0 V306.4 Z"/>
<text class="tm" x="218.3" y="336" font-size="10.5" text-anchor="middle">07/16</text>
<path class="s-opencode" d="M236.1,316.0 V315.5 a4.0,4.0 0 0 1 4.0,-4.0 h8.0 a4.0,4.0 0 0 1 4.0,4.0 V316.0 Z"/>
<path class="s-claude" d="M287.8,316.0 h16.0 v0.0 h-16.0 Z"/>
<path class="s-opencode" d="M287.8,315.6 V308.6 a4.0,4.0 0 0 1 4.0,-4.0 h8.0 a4.0,4.0 0 0 1 4.0,4.0 V315.6 Z"/>
<path class="s-opencode" d="M313.7,316.0 V316.0 a0.8,0.8 0 0 1 0.8,-0.8 h14.5 a0.8,0.8 0 0 1 0.8,0.8 V316.0 Z"/>
<text class="tm" x="321.7" y="336" font-size="10.5" text-anchor="middle">07/20</text>
<path class="s-claude" d="M339.6,265.6 h16.0 v50.4 h-16.0 Z"/>
<path class="s-opencode" d="M339.6,263.6 V263.5 a4.0,4.0 0 0 1 4.0,-4.0 h8.0 a4.0,4.0 0 0 1 4.0,4.0 V263.6 Z"/>
<path class="s-claude" d="M365.4,312.4 h16.0 v3.6 h-16.0 Z"/>
<path class="s-opencode" d="M365.4,310.4 V285.7 a4.0,4.0 0 0 1 4.0,-4.0 h8.0 a4.0,4.0 0 0 1 4.0,4.0 V310.4 Z"/>
<path class="s-claude" d="M391.3,300.6 h16.0 v15.4 h-16.0 Z"/>
<path class="s-opencode" d="M391.3,298.6 V298.6 a2.0,2.0 0 0 1 2.0,-2.0 h12.1 a2.0,2.0 0 0 1 2.0,2.0 V298.6 Z"/>
<path class="s-claude" d="M417.2,290.0 h16.0 v26.0 h-16.0 Z"/>
<path class="s-opencode" d="M417.2,288.0 V288.0 a1.6,1.6 0 0 1 1.6,-1.6 h12.9 a1.6,1.6 0 0 1 1.6,1.6 V288.0 Z"/>
<text class="tm" x="425.2" y="336" font-size="10.5" text-anchor="middle">07/24</text>
<path class="s-claude" d="M443.0,316.0 V313.6 a4.0,4.0 0 0 1 4.0,-4.0 h8.0 a4.0,4.0 0 0 1 4.0,4.0 V316.0 Z"/>
<path class="s-claude" d="M468.9,294.0 h16.0 v22.0 h-16.0 Z"/>
<path class="s-opencode" d="M468.9,292.0 V292.0 a0.6,0.6 0 0 1 0.6,-0.6 h14.8 a0.6,0.6 0 0 1 0.6,0.6 V292.0 Z"/>
<path class="s-claude" d="M494.8,316.0 V316.0 a2.8,2.8 0 0 1 2.8,-2.8 h10.4 a2.8,2.8 0 0 1 2.8,2.8 V316.0 Z"/>
<path class="s-pi" d="M520.6,316.0 V316.0 a0.1,0.1 0 0 1 0.1,-0.1 h15.9 a0.1,0.1 0 0 1 0.1,0.1 V316.0 Z"/>
<text class="tm" x="528.7" y="336" font-size="10.5" text-anchor="middle">07/28</text>
<path class="s-claude" d="M572.4,316.0 V298.5 a4.0,4.0 0 0 1 4.0,-4.0 h8.0 a4.0,4.0 0 0 1 4.0,4.0 V316.0 Z"/>
<path class="s-claude" d="M598.2,316.0 V249.4 a4.0,4.0 0 0 1 4.0,-4.0 h8.0 a4.0,4.0 0 0 1 4.0,4.0 V316.0 Z"/>
<path class="s-codex" d="M624.1,279.5 h16.0 v36.5 h-16.0 Z"/>
<path class="s-opencode" d="M624.1,277.5 V252.3 a4.0,4.0 0 0 1 4.0,-4.0 h8.0 a4.0,4.0 0 0 1 4.0,4.0 V277.5 Z"/>
<text class="tm" x="632.1" y="336" font-size="10.5" text-anchor="middle">08/01</text>
<path class="s-codex" d="M650.0,312.1 h16.0 v3.9 h-16.0 Z"/>
<path class="s-opencode" d="M650.0,310.1 V293.2 a4.0,4.0 0 0 1 4.0,-4.0 h8.0 a4.0,4.0 0 0 1 4.0,4.0 V310.1 Z"/>
<path class="s-claude" d="M675.8,316.0 h16.0 v0.0 h-16.0 Z"/>
<path class="s-codex" d="M675.8,315.9 h16.0 v0.0 h-16.0 Z"/>
<path class="s-opencode" d="M675.8,315.9 V306.4 a4.0,4.0 0 0 1 4.0,-4.0 h8.0 a4.0,4.0 0 0 1 4.0,4.0 V315.9 Z"/>
<path class="s-codex" d="M701.7,279.3 h16.0 v36.7 h-16.0 Z"/>
<path class="s-opencode" d="M701.7,277.3 V272.6 a4.0,4.0 0 0 1 4.0,-4.0 h8.0 a4.0,4.0 0 0 1 4.0,4.0 V277.3 Z"/>
<path class="s-codex" d="M727.6,144.4 h16.0 v171.6 h-16.0 Z"/>
<path class="s-opencode" d="M727.6,99.2 h16.0 v43.2 h-16.0 Z"/>
<path class="s-pi" d="M727.6,97.2 V97.2 a0.3,0.3 0 0 1 0.3,-0.3 h15.4 a0.3,0.3 0 0 1 0.3,0.3 V97.2 Z"/>
<text class="tm" x="735.6" y="336" font-size="10.5" text-anchor="middle">08/05</text>
<path class="s-opencode" d="M779.3,316.0 V316.0 a0.3,0.3 0 0 1 0.3,-0.3 h15.5 a0.3,0.3 0 0 1 0.3,0.3 V316.0 Z"/>
<path class="s-codex" d="M805.2,292.6 h16.0 v23.4 h-16.0 Z"/>
<path class="s-opencode" d="M805.2,290.6 V273.8 a4.0,4.0 0 0 1 4.0,-4.0 h8.0 a4.0,4.0 0 0 1 4.0,4.0 V290.6 Z"/>
<path class="s-codex wip" d="M831.0,130.0 h16.0 v186.0 h-16.0 Z"/>
<path class="s-opencode wip" d="M831.0,128.0 V108.5 a4.0,4.0 0 0 1 4.0,-4.0 h8.0 a4.0,4.0 0 0 1 4.0,4.0 V128.0 Z"/>
<text class="tm" x="839.1" y="336" font-size="10.5" text-anchor="middle">08/09</text>
<text class="t" x="735.6" y="88.9" font-size="11.5" font-weight="600" text-anchor="middle">196M</text>
<text class="t" x="839.1" y="96.5" font-size="11.5" font-weight="600" text-anchor="middle">189M</text>
<text class="tm" x="28" y="354" font-size="10.5">Generated 2026-08-09 16:17 UTC</text>
</svg>
