<svg xmlns="http://www.w3.org/2000/svg" width="880" height="368" viewBox="0 0 880 368" role="img" aria-label="Daily token usage">
<style>
svg{--f:Poppins,Arial,"Helvetica Neue",sans-serif;--fs:Lora,Georgia,"Iowan Old Style",serif;--fm:ui-monospace,"SF Mono",Menlo,Consolas,monospace;--surface:#faf9f5; --primary:#141413; --secondary:#53524b; --muted:#8a887f; --grid:#e8e6dc; --axis:#cbc8bc; --claude:#d06a41; --codex:#4382c9; --opencode:#7c5cd6; --pi:#2e9e6b; --ramp0:#edeae0; --ramp1:#f2cdb9; --ramp2:#e59a70; --ramp3:#d06a41; --ramp4:#9c4a26; --ink3:#141413; --ink4:#ffffff;}
@media (prefers-color-scheme: dark){svg{--surface:#141413; --primary:#faf9f5; --secondary:#b0aea5; --muted:#85837a; --grid:#292824; --axis:#383630; --claude:#db7448; --codex:#5b95d6; --opencode:#8f74e0; --pi:#3daf7a; --ramp0:#232221; --ramp1:#4b2b1b; --ramp2:#8a4526; --ramp3:#cf6a3e; --ramp4:#f0a37a; --ink3:#141413; --ink4:#141413;}}
.bg{fill:var(--surface)}
.grid{stroke:var(--grid);stroke-width:1;shape-rendering:crispEdges}
.axis{stroke:var(--axis);stroke-width:1;shape-rendering:crispEdges}
.t{font-family:var(--f);fill:var(--primary)}
.t2{font-family:var(--f);fill:var(--secondary)}
.tm{font-family:var(--f);fill:var(--muted);font-variant-numeric:tabular-nums}
.ts{font-family:var(--fs);fill:var(--primary)}
.tn{font-family:var(--fm);fill:var(--primary);font-variant-numeric:tabular-nums}
.s-claude{fill:var(--claude)}.s-codex{fill:var(--codex)}.s-opencode{fill:var(--opencode)}.s-pi{fill:var(--pi)}
.r0{fill:var(--ramp0)}.r1{fill:var(--ramp1)}.r2{fill:var(--ramp2)}.r3{fill:var(--ramp3)}.r4{fill:var(--ramp4)}
.on3{fill:var(--ink3)}.on4{fill:var(--ink4)}
.wip{opacity:.5}
@media (prefers-reduced-motion: reduce){*{animation:none !important}}
</style>
<rect class="bg" width="880" height="368"/>
<text class="t" x="28" y="30" font-size="17" font-weight="600">Daily token usage</text>
<text class="t2" x="28" y="50" font-size="12">Aug 20, 2026 – Sep 18, 2026 · 1.9B tokens over 30 days</text>
<rect class="s-claude" x="28" y="62" width="10" height="10" rx="2"/>
<text class="t2" x="44" y="71" font-size="12">Claude Code</text>
<rect class="s-codex" x="127" y="62" width="10" height="10" rx="2"/>
<text class="t2" x="143" y="71" font-size="12">Codex</text>
<rect class="s-opencode" x="184" y="62" width="10" height="10" rx="2"/>
<text class="t2" x="200" y="71" font-size="12">opencode</text>
<rect class="s-pi" x="262" y="62" width="10" height="10" rx="2"/>
<text class="t2" x="278" y="71" font-size="12">pi</text>
<text class="tm" x="66" y="320.0" font-size="11" text-anchor="end">0</text>
<line class="grid" x1="76" y1="271.2" x2="852" y2="271.2"/>
<text class="tm" x="66" y="275.2" font-size="11" text-anchor="end">100M</text>
<line class="grid" x1="76" y1="226.4" x2="852" y2="226.4"/>
<text class="tm" x="66" y="230.4" font-size="11" text-anchor="end">200M</text>
<line class="grid" x1="76" y1="181.6" x2="852" y2="181.6"/>
<text class="tm" x="66" y="185.6" font-size="11" text-anchor="end">300M</text>
<line class="grid" x1="76" y1="136.8" x2="852" y2="136.8"/>
<text class="tm" x="66" y="140.8" font-size="11" text-anchor="end">400M</text>
<line class="grid" x1="76" y1="92.0" x2="852" y2="92.0"/>
<text class="tm" x="66" y="96.0" font-size="11" text-anchor="end">500M</text>
<line class="axis" x1="76" y1="316.0" x2="852" y2="316.0"/>
<path class="s-opencode" d="M106.8,316.0 V316.0 a0.1,0.1 0 0 1 0.1,-0.1 h15.9 a0.1,0.1 0 0 1 0.1,0.1 V316.0 Z"/>
<text class="tm" x="114.8" y="336" font-size="10.5" text-anchor="middle">08/21</text>
<path class="s-opencode" d="M184.4,316.0 V309.0 a4.0,4.0 0 0 1 4.0,-4.0 h8.0 a4.0,4.0 0 0 1 4.0,4.0 V316.0 Z"/>
<path class="s-opencode" d="M210.2,314.5 h16.0 v1.5 h-16.0 Z"/>
<path class="s-pi" d="M210.2,312.5 V312.5 a0.0,0.0 0 0 1 0.0,-0.0 h15.9 a0.0,0.0 0 0 1 0.0,0.0 V312.5 Z"/>
<text class="tm" x="218.3" y="336" font-size="10.5" text-anchor="middle">08/25</text>
<path class="s-opencode" d="M262.0,316.0 V316.0 a3.6,3.6 0 0 1 3.6,-3.6 h8.9 a3.6,3.6 0 0 1 3.6,3.6 V316.0 Z"/>
<path class="s-opencode" d="M287.8,316.0 V314.7 a4.0,4.0 0 0 1 4.0,-4.0 h8.0 a4.0,4.0 0 0 1 4.0,4.0 V316.0 Z"/>
<path class="s-codex" d="M313.7,305.4 h16.0 v10.6 h-16.0 Z"/>
<path class="s-opencode" d="M313.7,303.4 V279.3 a4.0,4.0 0 0 1 4.0,-4.0 h8.0 a4.0,4.0 0 0 1 4.0,4.0 V303.4 Z"/>
<text class="tm" x="321.7" y="336" font-size="10.5" text-anchor="middle">08/29</text>
<path class="s-opencode" d="M339.6,316.0 V231.7 a4.0,4.0 0 0 1 4.0,-4.0 h8.0 a4.0,4.0 0 0 1 4.0,4.0 V316.0 Z"/>
<path class="s-opencode" d="M391.3,310.9 h16.0 v5.1 h-16.0 Z"/>
<path class="s-pi" d="M391.3,308.9 V308.9 a0.7,0.7 0 0 1 0.7,-0.7 h14.6 a0.7,0.7 0 0 1 0.7,0.7 V308.9 Z"/>
<path class="s-opencode" d="M417.2,284.6 h16.0 v31.4 h-16.0 Z"/>
<path class="s-pi" d="M417.2,282.6 V282.6 a3.5,3.5 0 0 1 3.5,-3.5 h9.0 a3.5,3.5 0 0 1 3.5,3.5 V282.6 Z"/>
<text class="tm" x="425.2" y="336" font-size="10.5" text-anchor="middle">09/02</text>
<path class="s-opencode" d="M443.0,310.5 h16.0 v5.5 h-16.0 Z"/>
<path class="s-pi" d="M443.0,308.5 V308.5 a0.0,0.0 0 0 1 0.0,-0.0 h16.0 a0.0,0.0 0 0 1 0.0,0.0 V308.5 Z"/>
<path class="s-opencode" d="M468.9,286.8 h16.0 v29.2 h-16.0 Z"/>
<path class="s-pi" d="M468.9,284.8 V284.8 a0.8,0.8 0 0 1 0.8,-0.8 h14.3 a0.8,0.8 0 0 1 0.8,0.8 V284.8 Z"/>
<path class="s-claude" d="M494.8,311.1 h16.0 v4.9 h-16.0 Z"/>
<path class="s-opencode" d="M494.8,303.5 h16.0 v5.6 h-16.0 Z"/>
<path class="s-pi" d="M494.8,301.5 V292.8 a4.0,4.0 0 0 1 4.0,-4.0 h8.0 a4.0,4.0 0 0 1 4.0,4.0 V301.5 Z"/>
<path class="s-claude" d="M520.6,306.6 h16.0 v9.4 h-16.0 Z"/>
<path class="s-codex" d="M520.6,304.6 h16.0 v0.0 h-16.0 Z"/>
<path class="s-opencode" d="M520.6,304.6 h16.0 v0.0 h-16.0 Z"/>
<path class="s-pi" d="M520.6,304.6 V304.6 a2.0,2.0 0 0 1 2.0,-2.0 h12.1 a2.0,2.0 0 0 1 2.0,2.0 V304.6 Z"/>
<text class="tm" x="528.7" y="336" font-size="10.5" text-anchor="middle">09/06</text>
<path class="s-claude" d="M546.5,312.0 h16.0 v4.0 h-16.0 Z"/>
<path class="s-codex" d="M546.5,303.7 h16.0 v6.3 h-16.0 Z"/>
<path class="s-pi" d="M546.5,301.7 V301.7 a0.1,0.1 0 0 1 0.1,-0.1 h15.8 a0.1,0.1 0 0 1 0.1,0.1 V301.7 Z"/>
<path class="s-pi" d="M572.4,316.0 V316.0 a1.4,1.4 0 0 1 1.4,-1.4 h13.3 a1.4,1.4 0 0 1 1.4,1.4 V316.0 Z"/>
<path class="s-pi" d="M598.2,316.0 V297.3 a4.0,4.0 0 0 1 4.0,-4.0 h8.0 a4.0,4.0 0 0 1 4.0,4.0 V316.0 Z"/>
<path class="s-claude" d="M624.1,310.5 h16.0 v5.5 h-16.0 Z"/>
<path class="s-pi" d="M624.1,308.5 V295.3 a4.0,4.0 0 0 1 4.0,-4.0 h8.0 a4.0,4.0 0 0 1 4.0,4.0 V308.5 Z"/>
<text class="tm" x="632.1" y="336" font-size="10.5" text-anchor="middle">09/10</text>
<path class="s-claude" d="M650.0,270.4 h16.0 v45.6 h-16.0 Z"/>
<path class="s-codex" d="M650.0,230.5 h16.0 v38.0 h-16.0 Z"/>
<path class="s-pi" d="M650.0,228.5 V197.8 a4.0,4.0 0 0 1 4.0,-4.0 h8.0 a4.0,4.0 0 0 1 4.0,4.0 V228.5 Z"/>
<path class="s-claude" d="M675.8,316.0 h16.0 v0.0 h-16.0 Z"/>
<path class="s-codex" d="M675.8,215.8 h16.0 v98.2 h-16.0 Z"/>
<path class="s-pi" d="M675.8,213.8 V173.3 a4.0,4.0 0 0 1 4.0,-4.0 h8.0 a4.0,4.0 0 0 1 4.0,4.0 V213.8 Z"/>
<path class="s-codex" d="M701.7,265.1 h16.0 v50.9 h-16.0 Z"/>
<path class="s-pi" d="M701.7,263.1 V112.0 a4.0,4.0 0 0 1 4.0,-4.0 h8.0 a4.0,4.0 0 0 1 4.0,4.0 V263.1 Z"/>
<path class="s-pi" d="M727.6,316.0 V307.8 a4.0,4.0 0 0 1 4.0,-4.0 h8.0 a4.0,4.0 0 0 1 4.0,4.0 V316.0 Z"/>
<text class="tm" x="735.6" y="336" font-size="10.5" text-anchor="middle">09/14</text>
<path class="s-opencode" d="M753.4,314.3 h16.0 v1.7 h-16.0 Z"/>
<path class="s-pi" d="M753.4,312.3 V312.3 a1.5,1.5 0 0 1 1.5,-1.5 h13.0 a1.5,1.5 0 0 1 1.5,1.5 V312.3 Z"/>
<path class="s-opencode" d="M779.3,316.0 V315.4 a4.0,4.0 0 0 1 4.0,-4.0 h8.0 a4.0,4.0 0 0 1 4.0,4.0 V316.0 Z"/>
<path class="s-opencode" d="M805.2,316.0 V315.5 a4.0,4.0 0 0 1 4.0,-4.0 h8.0 a4.0,4.0 0 0 1 4.0,4.0 V316.0 Z"/>
<path class="s-claude wip" d="M831.0,316.0 h16.0 v0.0 h-16.0 Z"/>
<path class="s-opencode wip" d="M831.0,316.0 V316.0 a2.2,2.2 0 0 1 2.2,-2.2 h11.7 a2.2,2.2 0 0 1 2.2,2.2 V316.0 Z"/>
<text class="tm" x="839.1" y="336" font-size="10.5" text-anchor="middle">09/18</text>
<text class="t" x="709.7" y="100.0" font-size="11.5" font-weight="600" text-anchor="middle">464M</text>
<text class="t" x="839.1" y="305.8" font-size="11.5" font-weight="600" text-anchor="middle">4.8M</text>
<text class="tm" x="28" y="354" font-size="10.5">Generated 2026-09-18 12:00 UTC</text>
</svg>
