<svg xmlns="http://www.w3.org/2000/svg" width="880" height="400" viewBox="0 0 880 400" role="img" aria-label="Hand-drawn chart of daily AI coding token usage, 2026-07-11 to 2026-08-09">
<style>
svg{--f:Poppins,Arial,"Helvetica Neue",sans-serif;--fs:Lora,Georgia,"Iowan Old Style",serif;--fm:ui-monospace,"SF Mono",Menlo,Consolas,monospace;--surface:#faf9f5; --primary:#141413; --secondary:#53524b; --muted:#8a887f; --grid:#e8e6dc; --axis:#cbc8bc; --claude:#d06a41; --codex:#4382c9; --opencode:#7c5cd6; --pi:#2e9e6b; --ramp0:#edeae0; --ramp1:#f2cdb9; --ramp2:#e59a70; --ramp3:#d06a41; --ramp4:#9c4a26; --ink3:#141413; --ink4:#ffffff;}
@media (prefers-color-scheme: dark){svg{--surface:#141413; --primary:#faf9f5; --secondary:#b0aea5; --muted:#85837a; --grid:#292824; --axis:#383630; --claude:#db7448; --codex:#5b95d6; --opencode:#8f74e0; --pi:#3daf7a; --ramp0:#232221; --ramp1:#4b2b1b; --ramp2:#8a4526; --ramp3:#cf6a3e; --ramp4:#f0a37a; --ink3:#141413; --ink4:#141413;}}
.bg{fill:var(--surface)}
.grid{stroke:var(--grid);stroke-width:1;shape-rendering:crispEdges}
.axis{stroke:var(--axis);stroke-width:1;shape-rendering:crispEdges}
.t{font-family:var(--f);fill:var(--primary)}
.t2{font-family:var(--f);fill:var(--secondary)}
.tm{font-family:var(--f);fill:var(--muted);font-variant-numeric:tabular-nums}
.ts{font-family:var(--fs);fill:var(--primary)}
.tn{font-family:var(--fm);fill:var(--primary);font-variant-numeric:tabular-nums}
.s-claude{fill:var(--claude)}.s-codex{fill:var(--codex)}.s-opencode{fill:var(--opencode)}.s-pi{fill:var(--pi)}
.r0{fill:var(--ramp0)}.r1{fill:var(--ramp1)}.r2{fill:var(--ramp2)}.r3{fill:var(--ramp3)}.r4{fill:var(--ramp4)}
.on3{fill:var(--ink3)}.on4{fill:var(--ink4)}
.wip{opacity:.5}
.hx{font-family:"Chalkboard SE","Comic Sans MS","Segoe Print","Bradley Hand",cursive;fill:var(--primary)}.hx2{font-family:"Chalkboard SE","Comic Sans MS","Segoe Print","Bradley Hand",cursive;fill:var(--secondary)}.hxm{font-family:"Chalkboard SE","Comic Sans MS","Segoe Print","Bradley Hand",cursive;fill:var(--muted)}.ink{stroke:var(--primary);fill:none;stroke-linecap:round;stroke-linejoin:round}.ln{fill:none;stroke-width:2.5;stroke-linecap:round;stroke-linejoin:round}.lc{stroke:var(--claude)}.lx{stroke:var(--codex)}.draw{stroke-dasharray:3200;animation:dw 1.5s ease-out both}@keyframes dw{from{stroke-dashoffset:3200}to{stroke-dashoffset:0}}.late{animation:fi .5s ease-out 1.25s both}@keyframes fi{from{opacity:0}to{opacity:1}}
@media (prefers-reduced-motion: reduce){*{animation:none !important}}
</style>
<rect class="bg" width="880" height="400"/>
<text class="hx" x="28.0" y="46.0" font-size="23" text-anchor="start" font-weight="700" transform="rotate(-0.3 28.0 46.0)">MY AI TOKEN CONSUMPTION</text>
<text class="hx2" x="30.0" y="68.0" font-size="12.5" text-anchor="start" transform="rotate(-0.5 30.0 68.0)">JUL 11 – AUG 09  ·  558M tokens, allegedly</text>
<path class="ink" stroke-width="2" d="M84.1,341.9 Q84.0,333.0 84.1,328.8 Q84.2,324.6 84.0,320.4 Q83.9,316.1 83.9,311.6 Q83.8,307.1 84.1,302.2 Q84.3,297.4 84.2,292.8 Q84.2,288.2 84.1,283.6 Q84.1,279.1 83.8,274.4 Q83.6,269.8 83.9,265.9 Q84.3,262.0 84.1,257.1 Q83.9,252.3 83.9,247.1 Q83.9,241.9 83.7,237.9 Q83.5,233.8 83.9,229.7 Q84.4,225.7 84.2,220.9 Q84.1,216.1 84.2,211.2 Q84.3,206.3 83.9,201.8 Q83.5,197.3 83.8,193.4 Q84.1,189.5 83.8,185.3 Q83.6,181.1 83.9,176.3 Q84.3,171.5 84.1,166.9 Q84.0,162.3 83.7,157.7 Q83.5,153.1 83.7,148.9 Q83.9,144.7 83.8,140.1 Q83.7,135.6 83.6,130.8 Q83.5,126.1 83.9,121.8 Q84.2,117.4 84.2,112.8 Q84.1,108.1 83.9,103.6 Q83.6,99.1 83.6,94.7 Q83.7,90.3 83.7,86.1 Q83.7,81.9 83.8,77.0 L84.0,72.1"/>
<path class="ink" stroke-width="2" d="M87.3,78.2 L84.0,72.0 M84.0,72.0 L80.7,78.2"/>
<path class="ink" stroke-width="2" d="M79.8,338.2 Q89.6,339.1 94.0,338.6 Q98.4,338.1 103.1,337.8 Q107.8,337.5 112.2,337.8 Q116.6,338.1 120.8,338.4 Q125.1,338.7 129.8,338.6 Q134.5,338.4 139.0,338.4 Q143.5,338.4 148.1,338.2 Q152.7,338.0 157.0,338.3 Q161.4,338.7 165.9,338.7 Q170.5,338.7 175.0,338.5 Q179.5,338.4 184.3,338.3 Q189.0,338.2 193.4,337.7 Q197.7,337.2 202.7,338.1 Q207.7,338.9 212.2,338.9 Q216.6,338.9 220.8,338.4 Q225.0,337.9 229.7,338.5 Q234.4,339.0 239.1,338.6 Q243.7,338.2 248.1,338.6 Q252.5,339.0 257.1,338.6 Q261.8,338.3 266.4,338.1 Q270.9,338.0 275.8,338.0 Q280.6,338.0 284.9,338.5 Q289.2,339.1 294.0,338.6 Q298.8,338.2 303.3,337.7 Q307.8,337.3 312.2,337.2 Q316.7,337.1 320.9,337.5 Q325.1,338.0 330.0,338.5 Q334.9,338.9 339.3,338.2 Q343.7,337.4 348.2,338.0 Q352.6,338.6 357.1,338.6 Q361.6,338.7 366.4,338.8 Q371.3,338.8 376.0,338.7 Q380.7,338.7 384.9,338.2 Q389.1,337.7 393.7,337.8 Q398.2,337.9 402.9,337.4 Q407.6,337.0 411.8,337.9 Q416.0,338.7 420.8,338.6 Q425.5,338.5 430.3,337.7 Q435.1,337.0 439.6,337.7 Q444.2,338.5 448.6,338.6 Q452.9,338.7 457.3,338.8 Q461.7,339.0 466.7,338.5 Q471.7,338.0 475.7,337.6 Q479.8,337.2 484.7,337.6 Q489.7,338.1 493.9,338.0 Q498.1,338.0 502.7,338.1 Q507.2,338.3 511.9,337.9 Q516.6,337.6 521.0,337.6 Q525.5,337.6 530.0,337.3 Q534.4,337.0 539.0,337.8 Q543.7,338.5 548.3,337.9 Q552.9,337.3 557.5,337.5 Q562.2,337.7 566.5,337.8 Q570.8,337.9 575.4,338.4 Q579.9,338.9 584.8,338.8 Q589.7,338.7 593.9,338.5 Q598.1,338.3 603.1,338.6 Q608.1,338.9 612.6,338.3 Q617.0,337.7 621.6,337.7 Q626.3,337.7 630.8,338.3 Q635.4,338.8 639.8,338.6 Q644.3,338.3 648.5,337.9 Q652.7,337.5 657.6,338.1 Q662.5,338.7 667.1,337.8 Q671.8,336.9 676.3,337.9 Q680.8,338.9 685.2,338.6 Q689.7,338.4 694.0,338.1 Q698.3,337.8 703.1,338.3 Q707.9,338.8 712.3,337.9 Q716.7,337.0 721.4,337.0 Q726.1,337.0 730.5,337.4 Q734.9,337.9 739.5,337.8 L744.1,337.8"/>
<path class="ink" stroke-width="2" d="M737.8,341.3 L744.0,338.0 M744.0,338.0 L737.8,334.7"/>
<path class="ink" stroke-width="1.6" d="M79.1,277.4 Q83.1,277.6 85.1,277.5 L87.0,277.4"/>
<path class="ink" stroke-width="1.6" d="M79.1,217.2 Q83.1,216.4 85.0,216.8 L86.9,217.1"/>
<text class="hxm" x="73.0" y="221.0" font-size="12" text-anchor="end" transform="rotate(-0.1 73.0 221.0)">100M</text>
<path class="ink" stroke-width="1.6" d="M78.9,156.4 Q83.1,156.9 85.0,156.6 L86.9,156.3"/>
<path class="ink" stroke-width="1.6" d="M79.0,95.8 Q82.8,95.6 84.9,95.8 L87.0,96.1"/>
<text class="hxm" x="73.0" y="100.0" font-size="12" text-anchor="end" transform="rotate(1.4 73.0 100.0)">200M</text>
<path class="ink" stroke-width="1.6" d="M84.0,336.1 Q83.8,340.4 83.9,342.3 L83.9,344.2"/>
<text class="hxm" x="84.0" y="360.0" font-size="12" text-anchor="middle" transform="rotate(-1.3 84.0 360.0)">JUL 11</text>
<path class="ink" stroke-width="1.6" d="M279.0,335.9 Q278.7,340.1 278.8,342.2 L278.9,344.3"/>
<text class="hxm" x="278.9" y="360.0" font-size="12" text-anchor="middle" transform="rotate(-0.0 278.9 360.0)">JUL 20</text>
<path class="ink" stroke-width="1.6" d="M495.4,335.9 Q495.2,339.5 495.3,341.8 L495.4,344.1"/>
<text class="hxm" x="495.4" y="360.0" font-size="12" text-anchor="middle" transform="rotate(-1.6 495.4 360.0)">JUL 30</text>
<path class="ink" stroke-width="1.6" d="M712.0,335.7 Q711.8,339.9 711.9,342.0 L712.1,344.1"/>
<text class="hxm" x="712.0" y="360.0" font-size="12" text-anchor="middle" transform="rotate(-1.9 712.0 360.0)">AUG 09</text>
<path class="ln lc draw" style="animation-delay:0s" d="M80.9,338.5 Q89.5,338.8 93.3,338.3 Q97.1,337.7 101.5,338.9 Q106.0,340.1 109.1,335.6 Q112.2,331.1 116.0,327.6 Q119.9,324.1 123.2,321.1 Q126.4,318.2 132.1,320.5 Q137.8,322.8 143.4,323.3 Q148.9,323.8 153.0,327.2 Q157.2,330.5 160.5,331.3 Q163.7,332.1 167.2,334.4 Q170.7,336.6 174.2,334.8 Q177.6,332.9 181.6,332.8 Q185.6,332.7 189.3,330.9 Q192.9,329.2 196.7,330.0 Q200.5,330.8 203.2,332.1 Q205.9,333.3 209.5,335.8 Q213.2,338.3 218.9,339.0 Q224.6,339.7 229.6,338.8 Q234.7,337.9 241.0,338.3 Q247.4,338.7 252.5,337.8 Q257.6,337.0 262.8,337.0 Q268.0,337.1 273.6,337.8 Q279.3,338.5 280.6,334.1 Q282.0,329.8 284.0,325.2 Q285.9,320.6 287.5,316.6 Q289.1,312.6 290.2,309.1 Q291.4,305.6 293.1,301.6 Q294.8,297.6 296.7,293.2 Q298.5,288.7 299.4,284.5 Q300.4,280.3 301.9,284.6 Q303.3,289.0 305.1,293.4 Q306.8,297.8 309.2,302.1 Q311.6,306.4 313.3,310.3 Q315.0,314.3 316.7,318.9 Q318.5,323.5 320.5,328.0 Q322.6,332.5 326.1,329.6 Q329.7,326.6 333.1,324.2 Q336.5,321.7 340.6,320.8 Q344.6,319.9 347.3,318.0 Q350.0,316.2 353.8,313.6 Q357.5,311.0 361.5,308.6 Q365.4,306.3 368.7,311.5 Q372.0,316.7 376.3,320.7 Q380.7,324.7 383.5,327.7 Q386.3,330.8 390.7,326.8 Q395.1,322.8 398.0,321.4 Q400.9,319.9 404.4,316.9 Q407.9,313.9 412.4,317.1 Q416.9,320.2 419.8,323.2 Q422.6,326.1 426.4,331.2 Q430.1,336.2 435.9,335.5 Q441.7,334.7 447.4,336.3 Q453.1,338.0 458.2,338.3 Q463.2,338.7 468.3,338.5 Q473.4,338.4 477.7,334.6 Q482.0,330.8 484.7,327.4 Q487.4,324.1 491.1,319.2 Q494.9,314.3 496.8,311.3 Q498.8,308.3 500.4,304.2 Q502.1,300.1 503.5,296.2 Q504.8,292.4 506.2,289.0 Q507.6,285.6 509.2,280.8 Q510.8,276.0 512.9,273.0 Q515.0,269.9 516.1,266.6 Q517.3,263.3 518.2,267.0 Q519.1,270.7 520.2,275.1 Q521.3,279.5 523.2,283.6 Q525.1,287.8 525.8,292.1 Q526.5,296.5 527.9,299.7 Q529.2,303.0 530.7,307.7 Q532.2,312.4 533.1,316.6 Q534.0,320.7 535.6,326.0 Q537.3,331.3 538.0,335.6 Q538.7,339.8 543.9,339.7 Q549.0,339.5 554.8,338.0 Q560.6,336.5 566.4,336.3 Q572.1,336.1 576.7,337.7 Q581.3,339.3 587.3,339.6 Q593.3,339.8 598.6,338.9 Q603.9,338.0 609.5,337.3 Q615.2,336.6 620.8,336.3 Q626.4,336.0 631.3,336.0 Q636.3,336.1 641.8,337.5 Q647.4,338.9 653.0,338.0 Q658.6,337.1 663.5,338.5 Q668.3,339.9 674.0,338.6 Q679.7,337.3 685.2,337.5 Q690.8,337.7 694.6,338.7 Q698.4,339.7 702.7,338.3 Q707.0,336.8 710.8,337.8 L714.6,338.7"/>
<path class="ln lx draw" style="animation-delay:.3s" d="M81.4,338.0 Q90.1,338.3 94.1,338.7 Q98.1,339.1 101.8,338.3 Q105.4,337.6 111.4,338.1 Q117.3,338.6 122.0,337.5 Q126.8,336.3 132.2,336.6 Q137.6,336.8 143.7,337.2 Q149.8,337.6 154.6,337.6 Q159.4,337.6 165.4,337.0 Q171.4,336.3 176.0,337.5 Q180.5,338.7 186.3,338.9 Q192.0,339.1 197.1,337.8 Q202.2,336.4 208.0,337.5 Q213.8,338.6 218.9,337.6 Q224.0,336.6 230.1,336.6 Q236.3,336.6 241.8,338.0 Q247.3,339.4 252.6,338.1 Q257.8,336.9 262.5,338.2 Q267.1,339.5 272.8,339.3 Q278.5,339.2 284.4,338.9 Q290.3,338.6 295.2,337.9 Q300.1,337.1 305.8,337.8 Q311.6,338.4 316.6,338.1 Q321.5,337.8 327.7,337.1 Q333.9,336.4 338.9,336.3 Q343.9,336.2 349.4,337.6 Q354.9,338.9 360.6,339.5 Q366.3,340.0 371.7,339.5 Q377.0,339.0 382.5,338.0 Q388.1,336.9 392.6,337.9 Q397.1,338.9 403.3,338.2 Q409.6,337.4 414.3,337.6 Q419.0,337.8 424.3,338.9 Q429.7,340.0 435.7,338.2 Q441.6,336.3 446.4,336.9 Q451.2,337.5 456.9,337.1 Q462.6,336.8 468.1,337.8 Q473.7,338.8 478.9,337.8 Q484.1,336.8 489.7,338.0 Q495.3,339.2 501.1,339.1 Q506.8,339.0 512.1,337.8 Q517.3,336.7 519.3,332.6 Q521.2,328.6 523.1,324.2 Q524.9,319.9 527.3,315.8 Q529.7,311.7 532.4,308.2 Q535.1,304.7 536.8,299.8 Q538.4,295.0 540.5,298.3 Q542.5,301.6 544.8,306.7 Q547.0,311.8 549.3,314.2 Q551.6,316.6 554.3,321.3 Q556.9,326.1 558.3,328.1 Q559.8,330.1 565.1,331.6 Q570.4,333.1 576.2,335.9 Q582.1,338.6 584.1,333.5 Q586.2,328.4 588.9,324.7 Q591.5,320.9 592.9,316.7 Q594.3,312.5 597.2,309.2 Q600.0,305.8 601.4,300.6 Q602.9,295.4 603.8,291.5 Q604.8,287.6 605.1,284.9 Q605.5,282.1 606.3,277.9 Q607.0,273.7 607.9,269.1 Q608.9,264.4 609.1,260.2 Q609.3,256.1 610.4,251.2 Q611.6,246.3 611.3,243.8 Q611.1,241.2 612.0,236.3 Q612.9,231.4 613.7,227.9 Q614.5,224.3 614.7,219.4 Q615.0,214.5 616.0,210.6 Q617.0,206.8 617.9,202.5 Q618.8,198.2 619.0,194.4 Q619.2,190.6 619.5,187.7 Q619.9,184.8 621.0,180.2 Q622.1,175.7 622.4,170.3 Q622.7,164.8 623.5,161.5 Q624.2,158.1 624.6,153.5 Q625.1,148.9 625.3,152.7 Q625.5,156.6 626.1,162.4 Q626.8,168.2 627.0,171.3 Q627.2,174.4 628.7,178.9 Q630.2,183.3 629.8,186.5 Q629.3,189.6 629.9,194.2 Q630.5,198.8 631.7,203.1 Q632.9,207.3 633.2,210.7 Q633.5,214.0 633.2,218.1 Q633.0,222.1 634.1,227.3 Q635.3,232.5 635.6,235.4 Q635.9,238.3 636.7,242.4 Q637.5,246.4 637.8,250.6 Q638.0,254.8 637.8,259.9 Q637.5,265.0 638.2,268.9 Q639.0,272.8 639.2,277.2 Q639.4,281.6 640.0,284.3 Q640.6,287.0 641.1,293.0 Q641.5,299.0 642.0,303.2 Q642.4,307.3 642.8,310.8 Q643.2,314.4 643.7,318.0 Q644.2,321.7 645.0,326.5 Q645.8,331.2 646.7,333.9 Q647.6,336.7 652.9,338.3 Q658.2,340.0 663.2,339.4 Q668.3,338.8 670.8,335.8 Q673.4,332.8 676.7,329.0 Q680.1,325.3 682.1,320.5 Q684.1,315.7 687.1,313.0 Q690.1,310.4 692.3,305.5 Q694.4,300.6 695.7,297.8 Q697.1,295.1 698.8,289.6 Q700.6,284.0 702.5,280.2 Q704.3,276.4 705.5,273.3 Q706.8,270.2 708.8,264.8 Q710.8,259.5 712.1,256.0 L713.4,252.6"/>
<g class="late">
<path fill="none" stroke="var(--claude)" stroke-width="1.6" stroke-linecap="round" d="M744.0,308.0 Q723.8,316.6 719.0,338.0"/>
<path fill="none" stroke="var(--claude)" stroke-width="1.6" stroke-linecap="round" d="M717.5,332.7 L719.0,338.0 M719.0,338.0 L722.6,333.8"/>
<text class="hx" x="750.0" y="306.0" font-size="13" text-anchor="start" font-weight="700" transform="rotate(-1.6 750.0 306.0)">CLAUDE CODE</text>
<text class="hx2" x="750.0" y="322.0" font-size="12" text-anchor="start" transform="rotate(-1.4 750.0 322.0)">0*</text>
</g>
<g class="late">
<path fill="none" stroke="var(--codex)" stroke-width="1.6" stroke-linecap="round" d="M744.0,251.9 Q733.1,263.8 719.0,255.9"/>
<path fill="none" stroke="var(--codex)" stroke-width="1.6" stroke-linecap="round" d="M724.5,256.1 L719.0,255.9 M719.0,255.9 L722.0,260.6"/>
<text class="hx" x="750.0" y="249.9" font-size="13" text-anchor="start" font-weight="700" transform="rotate(0.3 750.0 249.9)">CODEX</text>
<text class="hx2" x="750.0" y="265.9" font-size="12" text-anchor="start" transform="rotate(-0.1 750.0 265.9)">68M*</text>
</g>
<g class="late">
<path class="ink" stroke-width="1.6" d="M642.1,143.2 Q645.9,146.5 646.1,148.3 Q646.2,150.2 647.6,151.9 Q649.0,153.7 647.9,155.4 Q646.8,157.1 645.6,159.2 Q644.5,161.3 643.1,162.9 Q641.7,164.6 640.2,165.7 Q638.7,166.8 636.3,167.4 Q633.9,167.9 631.6,168.5 Q629.2,169.0 626.8,168.7 Q624.4,168.3 622.2,169.1 Q620.0,169.8 617.7,168.0 Q615.5,166.1 613.2,165.0 Q611.0,163.9 609.5,162.7 Q607.9,161.6 607.3,160.1 Q606.6,158.5 605.3,156.5 Q604.0,154.4 604.8,152.4 Q605.7,150.4 605.7,148.6 Q605.7,146.8 607.7,145.0 Q609.7,143.2 611.7,141.6 Q613.7,140.0 615.7,140.1 Q617.7,140.3 619.9,138.8 Q622.1,137.3 624.6,137.8 Q627.0,138.3 629.4,137.4 Q631.8,136.5 634.1,138.0 Q636.4,139.4 638.6,140.3 Q640.8,141.3 642.5,143.4 Q644.2,145.4 645.5,146.9 Q646.8,148.3 646.9,149.9 Q647.1,151.5 647.4,153.5 L647.7,155.5"/>
<path class="ink" stroke-width="1.4" d="M664.0,106.5 Q670.9,129.1 651.4,142.5"/>
<path class="ink" stroke-width="1.4" d="M653.9,137.6 L651.4,142.5 M651.4,142.5 L656.8,141.9"/>
<text class="hx" x="672.0" y="98.5" font-size="13.5" text-anchor="start" font-weight="700" transform="rotate(0.2 672.0 98.5)">THE DAY THE AGENTS TOOK OVER</text>
<text class="hx2" x="674.0" y="115.5" font-size="12" text-anchor="start" transform="rotate(0.3 674.0 115.5)">(155M tokens. one day. aug 05.)</text>
</g>
<text class="hxm" x="28.0" y="386.0" font-size="11" text-anchor="start" transform="rotate(0.4 28.0 386.0)">Generated 2026-08-09 13:16 UTC</text>
</svg>
